<svg 
  viewBox="0 0 503 503" 
  xmlns="http://www.w3.org/2000/svg" 
  overflow="hidden"
>
  <g>
    <path d="M49 147.168C49 116.147 74.1471 91 105.168 91L358.832 91C389.853 91 415 116.147 415 147.168L415 371.832C415 402.853 389.853 428 358.832 428L105.168 428C74.1471 428 49 402.853 49 371.832Z" stroke="#0C0C0C" strokeWidth="4.00265" strokeMiterlimit="8" fill="#1A1A72" fillRule="evenodd"/>
    <path d="M107.082 128.023 380.116 128.023 380.358 128.42 380.116 129.808 381.082 130.601 378.427 135.954 375.288 142.299 371.667 149.635 367.804 157.368 363.701 165.498 360.321 172.239 357.665 177.593 354.044 184.73 351.147 190.282 348.009 196.627 347.526 197.024 176.125 197.024 173.228 194.644 171.297 193.256 167.917 190.481 165.986 189.093 164.055 187.506 162.123 186.118 157.778 182.549 155.847 181.161 152.467 178.386 150.536 176.998 147.639 174.817 143.535 171.644 141.121 169.662 139.189 168.273 136.292 165.894 134.361 164.506 131.464 162.127 129.533 160.739 126.395 158.161 124.463 156.773 121.566 154.394 119.635 153.006 117.704 151.42 115.773 150.032 111.91 147.058 107.565 143.489 107.082 142.498Z" stroke="#0C0C0C" strokeWidth="4.00265" strokeMiterlimit="1" fill="#E63946" fillRule="evenodd"/>
    <path d="M105.448 156.05 106.416 156.249 111.252 160.225 113.187 161.616 118.023 165.592 119.958 166.983 126.004 171.953 127.938 173.344 130.84 175.73 132.775 177.121 139.546 182.687 141.481 184.078 145.592 187.259 148.494 189.445 150.428 191.036 152.363 192.427 155.265 194.812 157.2 196.204 161.311 199.385 163.729 201.173 165.664 202.565 166.148 203.161 166.389 231.388 166.389 285.059 166.148 285.655 165.664 285.854 159.618 285.854 153.814 284.86 136.644 281.481 124.795 279.294 111.252 276.71 107.141 275.915 106.174 275.319 105.69 273.728 105.448 270.349 105.206 231.786 104.964 230.593 103.03 231.984 100.853 233.773 98.9189 235.761 96.2586 238.743 93.115 242.719 89.0038 248.284 87.3108 251.266 85.86 254.844 84.8927 259.019 84.8927 262.199 85.6181 265.976 86.8273 269.157 88.7619 272.337 91.1801 275.12 93.3566 277.108 95.0496 278.698 97.7097 280.686 100.612 282.475 104.481 284.463 110.043 286.848 115.847 288.836 121.651 290.426 128.906 292.016 138.095 293.606 146.318 294.6 155.991 295.395 165.664 295.793 179.448 295.793 190.331 295.395 206.049 294.203 218.625 292.811 230.233 291.221 243.05 289.034 256.108 286.45 266.507 284.065 273.762 282.276 282.952 279.692 294.318 276.313 301.089 274.126 307.618 271.741 314.389 269.355 322.37 266.374 329.141 263.789 341.233 258.82 344.618 257.23 348.488 255.639 354.533 252.857 367.35 246.694 371.945 244.309 381.377 239.141 385.246 236.954 388.873 234.966 389.84 234.966 390.082 235.96 388.389 237.749 385.487 240.134 383.553 241.526 380.893 243.514 377.507 245.7 373.638 248.284 370.252 250.471 365.899 253.254 361.788 255.838 357.435 258.422 353.566 260.609 348.971 263.193 343.651 266.175 335.671 270.548 329.867 273.53 322.854 276.909 317.775 279.294 310.037 282.674 305.442 284.661 298.912 287.444 293.108 289.631 289.481 291.022 284.403 293.01 275.938 295.992 266.749 298.974 259.01 301.359 244.501 305.335 238.455 306.925 226.605 309.708 213.305 312.491 206.049 313.882 194.925 315.472 187.671 316.466 177.514 317.46 163.487 318.653 155.991 319.05 142.932 319.05 132.291 318.653 122.86 317.858 113.429 316.864 105.448 315.671 101.821 314.677 97.4678 313.286 93.5985 312.491 85.3762 309.708 79.3304 307.322 75.4612 305.335 72.5592 303.545 69.4156 301.359 65.788 298.377 62.8861 294.998 60.226 290.824 58.5332 287.047 57.324 282.276 57.0822 280.686 57.0822 276.71 58.2914 270.945 60.226 266.175 62.4025 262.199 65.5461 257.826 68.4481 254.447 71.5919 251.266 73.5265 249.278 75.9449 247.092 77.6377 245.502 83.6835 240.532 85.6181 239.141 88.52 236.954 91.6639 234.767 99.8862 229.599 103.514 227.413 105.206 226.419ZM104.723 227.81 104.481 228.605 104.964 228.605Z" stroke="#0C0C0C" strokeWidth="4.00265" strokeMiterlimit="1" fill="#E63946" fillRule="evenodd"/>
    <path d="M176.153 206.099 207.881 206.099 287.08 206.298 339.152 206.298 338.91 208.089 339.152 209.482 338.91 211.87 330.433 225.801 325.589 234.955 322.199 241.323 319.292 247.094 315.417 254.656 311.058 263.014 308.151 268.786 307.424 269.383 297.494 269.781 277.876 270.378 258.742 271.174 240.578 271.771 220.959 272.567 218.295 272.567 218.295 282.517 218.053 284.507 217.811 284.706 197.95 285.502 179.059 286.099 176.637 286.099 176.395 285.104 176.153 281.124Z" stroke="#0C0C0C" strokeWidth="4.00265" strokeMiterlimit="1" fill="#E63946" fillRule="evenodd"/>
    <path d="M216.992 319.209 218.186 319.409 216.276 322.202 214.844 323.798 208.876 328.786 206.967 330.182 204.341 332.177 201.715 333.973 198.851 335.968 194.793 338.562 190.496 341.355 186.438 344.148 183.335 346.343 179.992 348.937 178.083 350.333 175.457 352.328 173.547 353.725 170.205 356.119 164.954 359.71 161.851 361.905 159.225 363.701 157.554 365.097 155.644 366.494 152.064 369.088 149.676 370.883 147.767 372.28 144.425 374.674 142.038 376.47 140.128 377.866 137.741 379.662 135.115 381.457 132.967 383.253 131.057 384.65 127.954 387.044 122.702 390.635 118.883 393.229 116.257 395.024 112.915 397.418 109.335 400.012 107.664 401.209 107.425 401.209 107.186 395.623 107.186 388.64 107.664 349.934 107.902 334.971 108.141 328.187 108.857 327.988 121.031 328.586 136.547 328.586 146.096 328.187 157.315 327.589 173.309 326.192 186.676 324.596 195.986 323.199 208.399 321.005Z" stroke="#0C0C0C" strokeWidth="4.00265" strokeMiterlimit="1" fill="#E63946" fillRule="evenodd"/>
  </g>
</svg>
